<svg xmlns="http://www.w3.org/2000/svg" xmlns:xlink="http://www.w3.org/1999/xlink" version="1.1" x="0px" y="0px" viewBox="0 0 100 125" enable-background="new 0 0 100 100" xml:space="preserve">
	<path fill="#Ffff" d="M84.984,20.748l-6.351-2.946c-0.407-0.189-0.838-0.279-1.26-0.279  c-1.133,0-2.217,0.644-2.726,1.738l-2.521,5.437l1.427-8.282c0.281-1.632-0.812-3.184-2.447-3.466l-6.896-1.188  c-0.172-0.03-0.343-0.044-0.513-0.044c-1.433,0-2.701,1.031-2.953,2.491L58.369,28H57V6c0-1.657-1.343-3-3-3h-7  c-1.656,0-3,1.343-3,3v13h-7c-0.124,0-0.242,0.022-0.362,0.037L33.72,7.072c-0.335-1.371-1.562-2.29-2.912-2.29  c-0.235,0-0.475,0.028-0.713,0.086l-6.801,1.659c-1.609,0.393-2.596,2.016-2.204,3.625l1.999,8.194  c-0.022,0.008-0.045,0.01-0.067,0.019l-6.539,2.499c-1.547,0.591-2.323,2.326-1.731,3.874l5.643,14.763  C20.151,39.931,20,40.42,20,40.95l4,53.1c0,1.63,1.321,2.95,2.95,2.95h46.1c1.63,0,2.95-1.32,2.95-2.95l4-53.1  c0-0.535-0.152-1.029-0.4-1.462l6.844-14.757C87.141,23.229,86.488,21.445,84.984,20.748z M64.518,15.873l4.928,0.849L66,36.712V31  c0-1.657-1.343-3-3-3h-0.572L64.518,15.873z M62,32v16.353c-1.221,2.134-2,4.661-2,7.647c-1.133,0.566-2.118,1.078-3,1.537V32H62z   M53,7v24v28.494c-1.825,0.736-3.175,0.857-5,0.23V7H53z M43,23v34.189c-0.617-0.362-1.276-0.756-2-1.189  c0-3.359-1.211-6.183-3-8.526V23H43z M30.071,8.992L34,25.1v18.444c-0.261-0.2-0.524-0.394-0.79-0.583l-7.998-32.785L30.071,8.992z   M23.516,22.459l1.592,4.167l3.298,13.52c-1.673-0.81-3.147-1.376-4.141-1.722l-5.42-14.18L23.516,22.459z M75.698,38.391  c-1.452,0.464-3.892,1.375-6.429,2.896l0.254-1.467l8.334-17.969l4.535,2.104L75.698,38.391z" />
</svg>
